#!OML:ASF Y:\EmotionMaleHayes\Project 1\Capture day 1\Session 1\Male1.ASF
:FULLY-SPECIFIED
:DEGREES
32
root -18.3428 16.6396 0.679196 103.272 78.954 100.649
lowerback 11.3025 -2.17902 -14.4924
upperback 0.931606 -4.65113 -0.857215
thorax -4.27558 -1.9967 7.87004
lowerneck -30.1659 5.03305 3.89017
upperneck 18.9524 6.07269 -3.13249
head 11.2857 2.60825 -0.694472
rclavicle -8.44835e-015 2.16675e-014
rhumerus -80.2671 10.9354 -88.2211
rradius 99.6926
rwrist -23.649
rhand -28.6531 -31.638
rfingers 7.12502
rthumb -2.01667 -61.6082
lclavicle -8.44835e-015 2.16675e-014
lhumerus -51.4864 -30.9047 106.361
lradius 105.272
lwrist 16.3134
lhand -33.4037 -33.869
lfingers 7.12502
lthumb -6.60389 -3.99193
rfemur -26.4981 -9.41679 10.7944
rtibia 24.837
rfoot -5.985 0.53271
rtoes 18.4272
lfemur 22.7042 0.196561 -30.8438
ltibia 69.497
lfoot 8.78119 0.807409
ltoes 4.4809
33
root -17.9255 16.4789 0.663182 98.1402 79.3717 96.2348
lowerback 12.3182 -1.55878 -14.0992
upperback 0.965969 -3.9459 -0.819349
thorax -4.99821 -1.60204 7.67654
lowerneck -30.0466 4.84278 3.60594
upperneck 18.9452 5.87988 -2.9148
head 11.2381 2.53153 -0.606242
rclavicle 1.10325e-014 2.10712e-014
rhumerus -78.6213 11.1007 -88.1468
rradius 99.5576
rwrist -23.4984
rhand -29.069 -31.9721
rfingers 7.12502
rthumb -2.41835 -61.9381
lclavicle 1.10325e-014 2.10712e-014
lhumerus -52.8268 -29.6047 106.986
lradius 103.955
lwrist 16.7018
lhand -32.4651 -32.7273
lfingers 7.12502
lthumb -5.6978 -2.82391
rfemur -26.3414 -8.09458 11.5704
rtibia 28.2304
rfoot -8.89687 -1.02423
rtoes 28.6311
lfemur 22.0981 1.56933 -29.9764
ltibia 73.3316
lfoot 8.38618 -0.0481382
ltoes 4.82541
34
root -17.5374 16.3133 0.653914 90.8877 80.9373 89.4828
lowerback 13.6449 -0.865962 -12.5363
upperback 0.772047 -3.02482 -0.474045
thorax -6.22667 -1.09475 7.12327
lowerneck -29.7184 4.66291 3.48265
upperneck 18.7387 5.67026 -2.83956
head 11.0907 2.44445 -0.603442
rclavicle 2.27608e-014 7.95139e-016
rhumerus -76.9238 11.1562 -88.0956
rradius 99.2374
rwrist -23.1692
rhand -29.3794 -32.3248
rfingers 7.12502
rthumb -2.7181 -62.2873
lclavicle 2.27608e-014 7.95139e-016
lhumerus -54.1721 -28.1344 107.507
lradius 102.405
lwrist 16.9645
lhand -32.0372 -32.4654
lfingers 7.12502
lthumb -5.28461 -2.55126
rfemur -27.3097 -4.98792 13.8579
rtibia 32.8509
rfoot -10.6509 -2.2273
rtoes 19.2715
lfemur 21.1472 3.36553 -27.5241
ltibia 77.005
lfoot 9.15099 -2.01507
ltoes 3.92677
35
root -17.1616 16.1562 0.64316 76.1396 84.4068 75.0112
lowerback 13.974 -0.3498 -9.0276
upperback 1.28366 -1.74791 0.601277
thorax -6.18829 -0.582441 6.08606
lowerneck -29.7518 4.46899 3.43212
upperneck 17.5991 5.4839 -3.23477
head 10.6768 2.31536 -0.77992
rclavicle 1.49089e-016 -2.90226e-014
rhumerus -73.7909 11.438 -87.8033
rradius 98.8834
rwrist -23.4318
rhand -30.4956 -33.7006
rfingers 7.12502
rthumb -3.79601 -63.6465
lclavicle 1.49089e-016 -2.90226e-014
lhumerus -53.7716 -26.8401 107.486
lradius 100.298
lwrist 17.1097
lhand -31.9457 -32.1184
lfingers 7.12502
lthumb -5.19628 -2.2021
rfemur -28.8509 -0.856453 18.7963
rtibia 38.1913
rfoot -13.2298 -3.93445
rtoes 11.9716
lfemur 20.0459 5.07038 -22.534
ltibia 80.8847
lfoot 16.4139 -23.1732
ltoes -1.30507
36
root -16.7722 16.0189 0.620742 18.5377 87.1546 17.5653
lowerback 14.9185 0.0062713 -4.16224
upperback 1.37615 -0.48181 1.66992
thorax -6.85759 -0.0584978 4.24006
lowerneck -30.0433 4.25461 3.4973
upperneck 17.0792 5.17713 -3.40467
head 10.5293 2.16033 -0.905015
rclavicle 7.90169e-015 6.75868e-015
rhumerus -71.2689 11.5546 -87.892
rradius 98.6791
rwrist -23.3222
rhand -31.0482 -34.4385
rfingers 7.12502
rthumb -4.3297 -64.3743
lclavicle 7.90169e-015 6.75868e-015
lhumerus -54.0343 -25.3997 107.472
lradius 98.0562
lwrist 17.1982
lhand -31.882 -31.2643
lfingers 7.12502
lthumb -5.13478 -1.34653
rfemur -29.6624 3.05818 24.7467
rtibia 42.6375
rfoot -15.9681 -4.88355
rtoes 12.5595
lfemur 18.802 6.76119 -16.4623
ltibia 84.3821
lfoot 25.4045 -44.1755
ltoes -2.04777
37
root -16.3616 15.9092 0.611041 -30.8776 85.6796 -31.1594
lowerback 15.3834 0.303051 -1.07627
upperback 2.26424 0.510574 2.42973
thorax -6.24855 0.350429 3.08189
lowerneck -31.0977 4.27148 3.79978
upperneck 16.5364 5.08478 -3.68301
head 10.5141 2.09636 -1.06083
rclavicle 8.99501e-015 7.55382e-015
rhumerus -67.5196 11.8435 -87.8342
rradius 98.3448
rwrist -23.2153
rhand -31.5221 -34.5906
rfingers 7.12502
rthumb -4.78726 -64.5165
lclavicle 8.99501e-015 7.55382e-015
lhumerus -53.2073 -23.8008 106.786
lradius 95.5496
lwrist 17.0757
lhand -31.776 -30.3597
lfingers 7.12502
lthumb -5.03243 -0.439486
rfemur -28.4601 5.78752 29.0128
rtibia 45.308
rfoot -18.8446 -5.5751
rtoes 13.0492
lfemur 17.8568 8.08927 -11.9639
ltibia 86.524
lfoot 42.231 -63.7381
ltoes -4.3113
38
root -15.9486 15.8021 0.611385 -41.7208 84.8996 -41.4239
lowerback 16.3856 0.456945 0.106306
upperback 2.57412 0.956273 2.603
thorax -6.47963 0.553417 2.49851
lowerneck -31.8429 4.30693 4.28418
upperneck 16.2965 4.91983 -3.82417
head 10.5546 2.02936 -1.21166
rclavicle -1.98288e-014 1.55052e-014
rhumerus -64.4317 12.1108 -88.0782
rradius 98.0513
rwrist -23.0609
rhand -32.1787 -35.0396
rfingers 7.12502
rthumb -5.42126 -64.9503
lclavicle -1.98288e-014 1.55052e-014
lhumerus -53.5419 -21.8928 106.159
lradius 93.2434
lwrist 16.8322
lhand -32.0158 -29.5109
lfingers 7.12502
lthumb -5.26395 0.403759
rfemur -26.506 6.62114 30.8585
rtibia 46.5569
rfoot -21.1522 -5.94295
rtoes 13.2416
lfemur 16.035 8.59673 -9.90956
ltibia 86.821
lfoot 102.258 -73.9469
ltoes -1.54501
39
root -15.5603 15.7159 0.614494 -40.6886 84.4791 -40.057
lowerback 17.3481 0.735626 0.133494
upperback 2.70241 1.35293 2.59773
thorax -6.88396 0.751553 2.38484
lowerneck -32.0647 4.33641 4.47982
upperneck 15.7743 4.83166 -3.74746
head 10.394 2.01598 -1.22855
rclavicle 2.48481e-015 1.47101e-014
rhumerus -61.2481 12.8092 -88.2574
rradius 97.7123
rwrist -22.717
rhand -32.7853 -35.8726
rfingers 7.12502
rthumb -6.0069 -65.7674
lclavicle 2.48481e-015 1.47101e-014
lhumerus -54.3069 -19.8515 105.344
lradius 91.2806
lwrist 16.73
lhand -32.9848 -28.2973
lfingers 7.12502
lthumb -6.19957 1.59198
rfemur -24.4905 6.79575 31.4482
rtibia 46.9313
rfoot -22.9624 -5.6602
rtoes 14.897
lfemur 13.3957 9.50561 -9.19469
ltibia 84.9509
lfoot 153.456 -60.8967
ltoes -1.65531
40
root -15.1806 15.65 0.616013 -39.3072 84.2708 -39.1172
lowerback 17.6117 0.914036 0.0475239
upperback 2.46851 1.57659 2.63266
thorax -7.29285 0.861991 2.41782
lowerneck -31.7684 4.32049 4.44071
upperneck 15.2266 4.79686 -3.61997
head 10.1386 2.02355 -1.18553
rclavicle -9.98893e-015 -6.36111e-015
rhumerus -58.1028 13.7443 -88.256
rradius 97.3311
rwrist -22.2136
rhand -32.5692 -35.7872
rfingers 7.12502
rthumb -5.79826 -65.6879
lclavicle -9.98893e-015 -6.36111e-015
lhumerus -55.6377 -17.9546 104.714
lradius 89.7408
lwrist 17.704
lhand -34.0199 -26.0627
lfingers 7.12502
lthumb -7.19878 3.79485
rfemur -23.403 6.48516 31.5895
rtibia 47.1072
rfoot -24.4197 -5.17861
rtoes 15.5094
lfemur 9.41458 10.4305 -9.07347
ltibia 81.3326
lfoot 168.448 -40.4597
ltoes -0.251813
41
root -14.8052 15.6288 0.625327 -41.8543 84.4338 -41.8867
lowerback 17.5074 0.900674 0.115912
upperback 2.64413 1.57404 2.64348
thorax -7.04483 0.860372 2.39161
lowerneck -31.6228 4.27263 4.58292
upperneck 14.5778 4.69586 -3.75469
head 9.88173 1.97745 -1.27652
rclavicle -1.27222e-014 -2.5842e-014
rhumerus -54.3123 14.5145 -88.0636
rradius 97.1545
rwrist -21.8006
rhand -31.5372 -34.688
rfingers 7.12502
rthumb -4.80186 -64.6135
lclavicle -1.27222e-014 -2.5842e-014
lhumerus -56.549 -16.5702 103.757
lradius 88.2857
lwrist 19.3168
lhand -35.1305 -25.345
lfingers 7.12502
lthumb -8.27072 4.4731
rfemur -21.9619 5.82485 31.7285
rtibia 47.1114
rfoot -25.7068 -5.24592
rtoes 13.4395
lfemur 5.27571 10.7105 -9.10749
ltibia 77.4081
lfoot 175.737 -18.7752
ltoes 0.819684
